<?xml version="1.0" encoding="utf-8"?>
<!-- Generator: Adobe Illustrator 19.0.0, SVG Export Plug-In . SVG Version: 6.00 Build 0)  -->
<svg version="1.1" id="Capa_1" xmlns="http://www.w3.org/2000/svg" xmlns:xlink="http://www.w3.org/1999/xlink" x="0px" y="0px"
	 viewBox="-164 42.3 512 512" style="enable-background:new -164 42.3 512 512;" xml:space="preserve">
<style type="text/css">
	.st0{fill:#FFFFFF;}
</style>
<g>
	<path class="st0" d="M92,74.3c123.5,0,224,100.5,224,224s-100.5,224-224,224s-224-100.5-224-224S-31.5,74.3,92,74.3 M92,42.3
		c-141.4,0-256,114.6-256,256s114.6,256,256,256s256-114.6,256-256S233.4,42.3,92,42.3L92,42.3z M234.7,383.9l-1.4-4.4
		c-3.4-10.1-14.5-20.6-24.8-23.4l-37.8-10.3c-10.3-2.8-24.9,1-32.4,8.5L124.6,368c-49.8-13.5-88.8-52.5-102.2-102.3L36.1,252
		c7.5-7.5,11.3-22.1,8.5-32.4l-10.3-37.8c-2.8-10.3-13.3-21.4-23.4-24.8l-4.3-1.4c-10.1-3.4-24.5,0-32,7.6L-46,183.7
		c-3.7,3.6-6,14-6,14.1c-0.7,65.1,24.8,127.7,70.8,173.7c45.9,45.9,108.3,71.3,173.2,70.8c0.3,0,11.1-2.3,14.7-5.9l20.5-20.5
		C234.7,408.3,238.1,393.9,234.7,383.9z"/>
</g>
</svg>
