<?xml version="1.0" encoding="utf-8"?>
<!-- Generator: Adobe Illustrator 19.0.0, SVG Export Plug-In . SVG Version: 6.00 Build 0)  -->
<svg version="1.1" id="Capa_1" xmlns="http://www.w3.org/2000/svg" xmlns:xlink="http://www.w3.org/1999/xlink" x="0px" y="0px"
	 viewBox="0 0 675 238.5" style="enable-background:new 0 0 675 238.5;" xml:space="preserve">
<style type="text/css">
	.st0{fill:none;stroke:url(#XMLID_94_);stroke-width:10.5;stroke-miterlimit:10;}
	.st1{fill:none;stroke:url(#XMLID_95_);stroke-width:10.5;stroke-miterlimit:10;}
	.st2{fill:none;stroke:url(#XMLID_96_);stroke-width:10.5;stroke-miterlimit:10;}
	.st3{fill:none;stroke:url(#XMLID_97_);stroke-width:10.5;stroke-miterlimit:10;}
	.st4{fill:#282829;}
	.st5{opacity:0.95;}
</style>
<g id="XMLID_1_">
	<linearGradient id="XMLID_94_" gradientUnits="userSpaceOnUse" x1="493.8921" y1="139.5642" x2="619.2673" y2="98.8273">
		<stop  offset="8.673470e-002" style="stop-color:#FFFFFF"/>
		<stop  offset="0.7347" style="stop-color:#47C4D8"/>
	</linearGradient>
	<path id="XMLID_5_" class="st0" d="M619.4,114.1c-6.5,33.8-40.6,55.6-76.1,48.8c-35.5-6.9-59-39.8-52.4-73.6"/>
	
		<linearGradient id="XMLID_95_" gradientUnits="userSpaceOnUse" x1="503.3622" y1="118.0008" x2="605.2478" y2="155.0841" gradientTransform="matrix(0.9894 -0.145 0.145 0.9894 -11.0588 70.9925)">
		<stop  offset="4.081633e-002" style="stop-color:#FFFFFF"/>
		<stop  offset="1" style="stop-color:#47C4D8"/>
	</linearGradient>
	<path id="XMLID_4_" class="st1" d="M598.8,73c19.9,22.1,13.3,60.6-14.9,85.9c-28.1,25.3-67.1,27.9-87,5.8"/>
	<linearGradient id="XMLID_96_" gradientUnits="userSpaceOnUse" x1="512.9986" y1="121.0968" x2="612.0888" y2="121.0968">
		<stop  offset="0.102" style="stop-color:#FFFFFF"/>
		<stop  offset="0.9745" style="stop-color:#47C4D8"/>
	</linearGradient>
	<path id="XMLID_6_" class="st2" d="M515.6,64.4c26-14.6,62,0.4,80.5,33.4s12.5,71.6-13.5,86.2"/>
	<linearGradient id="XMLID_97_" gradientUnits="userSpaceOnUse" x1="487.3941" y1="85.6377" x2="615.5511" y2="159.6291">
		<stop  offset="5.612245e-002" style="stop-color:#FFFFFF"/>
		<stop  offset="0.8622" style="stop-color:#54C6DA"/>
		<stop  offset="1" style="stop-color:#47C4D8"/>
	</linearGradient>
	<circle id="XMLID_3_" class="st3" cx="551.5" cy="122.6" r="68.7"/>
	<g id="XMLID_21_">
		<path id="XMLID_26_" class="st4" d="M198.8,51.2c-2.6-1.5-5.4-2.3-8.3-2.3s-5.6,0.8-8.2,2.3c-2.6,1.5-4.5,3.5-5.7,5.9
			c-1.4,2.9-2.2,7.5-2.2,13.8v104c0,6.3,0.7,10.8,2.2,13.8c1.2,2.4,3.1,4.4,5.7,5.9c2.6,1.5,5.3,2.3,8.2,2.3s5.6-0.8,8.3-2.3
			c2.6-1.5,4.5-3.5,5.7-6c1.4-2.9,2.2-7.4,2.2-13.7v-104c0-6.2-0.7-10.8-2.2-13.8C203.3,54.7,201.5,52.8,198.8,51.2z"/>
		<path id="XMLID_27_" class="st4" d="M319.1,158.5c-2.2,0-4.5,0.6-7.1,1.7c-7.2,3.2-11.7,5.1-13.5,5.6c-1.8,0.5-4.8,0.8-8.8,0.8
			c-9.6,0-17.5-2.9-23.7-8.8c-7.9-7.5-11.9-19-11.9-34.5c0-15.5,4-27.3,12.1-35.3c5.9-5.9,13.6-8.8,23.3-8.8c5.4,0,11,1.2,16.8,3.5
			c5.3,2.1,9.2,3.2,11.7,3.2c3.8,0,7-1.3,9.4-4c2.5-2.7,3.7-6.1,3.7-10.2c0-6.7-3.8-12.2-11.5-16.4c-7.7-4.2-17.8-6.3-30.2-6.3
			c-10.9,0.1-20.6,2-29.1,5.8c-12.5,5.5-22.3,13.8-29.2,25c-3.5,5.6-6.2,12.2-8.3,19.9c-2,7.7-3,15.3-3,22.8
			c0,23.7,7.2,42.5,21.5,56.4c12.6,12.1,28.7,18.2,48.5,18.2c12.8,0,23.6-2.7,32.5-8.1c6.6-4,9.9-9.2,9.9-15.7c0-4-1.3-7.4-3.8-10.3
			C325.9,159.9,322.8,158.5,319.1,158.5z"/>
		<path id="XMLID_28_" class="st4" d="M464.5,57c-1.2-2.4-3.1-4.3-5.7-5.8c-2.6-1.5-5.4-2.3-8.3-2.3s-5.6,0.8-8.2,2.3
			c-2.6,1.5-4.5,3.5-5.7,5.8c-1.4,2.9-2.2,7.5-2.2,13.7v60.2c0,10.9-2,19.1-5.9,24.4c-2.5,3.4-5.7,6.1-9.8,8.1c-4.1,2-8.4,3-12.9,3
			c-4.2,0-8.4-0.9-12.4-2.7c-4-1.8-7.3-4.2-9.7-7.1c-4.4-5.4-6.6-12.7-6.6-21.9V70.7c0-6.2-0.7-10.7-2.2-13.7
			c-1.2-2.4-3.1-4.3-5.7-5.8c-2.6-1.5-5.4-2.3-8.3-2.3s-5.6,0.8-8.2,2.3c-2.6,1.5-4.5,3.5-5.7,5.8c-1.4,2.9-2.2,7.5-2.2,13.7v68.6
			c0,10.4,2.3,19.7,7,28c4.7,8.3,11.4,15.1,20.1,20.4c10.2,6.1,21.4,9.2,33.5,9.2c11.8,0,22.6-2.8,32.4-8.4
			c11.4-6.6,19.6-15.7,24.5-27.3c2.8-6.7,4.2-16.8,4.2-30.2V70.7C466.7,64.5,466,60,464.5,57z"/>
	</g>
	<path id="XMLID_13_" class="st4" d="M148.4,124.5c-4-3.8-9.9-6.9-17.5-9.3c5.9-3.8,10.2-8,12.8-12.5c2.6-4.5,3.8-10.1,3.8-16.8
		c0-11.3-3.9-20.5-11.8-27.6c-3.7-3.3-7.8-5.7-12.3-7.2c-4.5-1.4-10.1-2.2-16.8-2.2H86.2h-7.6h-3.9H55.2v19.6l0.1-0.1
		c-0.1,1.5-0.1,3.2-0.1,5.1v90.8v4.7v3.2v24.7h23.4h38.3c13.2,0,24-5,32.4-14.9c7-8.2,10.5-18,10.5-29.3
		C159.8,141.1,156,131.6,148.4,124.5z M87.4,78.5h14.7c4.4,0,8,1.2,10.8,3.5c2.8,2.3,4.2,5.4,4.2,9.1c0,4.1-1.3,7.5-3.8,10.1
		c-2.5,2.6-5.8,3.9-9.7,3.9H87.4V78.5z M123,162.3c-1.5,2-3.2,3.3-5.1,4c-1.9,0.7-4.7,1-8.4,1H87.4v-31.9h21.3
		c11.8,0,17.7,5.5,17.7,16.4C126.5,155.9,125.3,159.4,123,162.3z"/>
	<path id="XMLID_9_" class="st5" d="M186.6,48.9"/>
</g>
</svg>
