<?xml version="1.0" encoding="utf-8"?>
<!-- Generator: Adobe Illustrator 22.0.1, SVG Export Plug-In . SVG Version: 6.00 Build 0)  -->
<svg version="1.1" id="Capa_1" xmlns:x="&ns_extend;" xmlns:i="&ns_ai;" xmlns:graph="&ns_graphs;"
	 xmlns="http://www.w3.org/2000/svg" xmlns:xlink="http://www.w3.org/1999/xlink" x="0px" y="0px" viewBox="0 0 364.9 97.3"
	 style="enable-background:new 0 0 364.9 97.3;" xml:space="preserve">
<style type="text/css">
	.st0{fill:#FFFFFF;}
	.st1{fill-rule:evenodd;clip-rule:evenodd;fill:#FFFFFF;}
</style>
<metadata>
	<sfw  xmlns="&ns_sfw;">
		<slices></slices>
		<sliceSourceBounds  bottomLeftOrigin="true" height="62.6" width="308" x="192.1" y="-331"></sliceSourceBounds>
	</sfw>
</metadata>
<path class="st0" d="M59.5,16.4c8.5,0,16.2,3.5,21.8,9c5.6,5.6,9,13.3,9,21.8c0,8.5-3.4,16.2-9,21.8c-5.6,5.6-13.3,9-21.8,9
	c-8.5,0-16.2-3.5-21.8-9c-5.6-5.6-9-13.3-9-21.8c0-8.5,3.4-16.2,9-21.8C43.2,19.9,50.9,16.4,59.5,16.4L59.5,16.4z M79.5,27.2
	c-5.1-5.1-12.2-8.3-20.1-8.3c-7.9,0-15,3.2-20.1,8.3C34.2,32.3,31,39.4,31,47.3c0,7.8,3.2,15,8.3,20.1c5.1,5.1,12.2,8.3,20.1,8.3
	c7.9,0,15-3.2,20.1-8.3c5.2-5.1,8.3-12.3,8.3-20.1C87.9,39.4,84.7,32.3,79.5,27.2L79.5,27.2z"/>
<path class="st1" d="M75.2,37.7c-1.1,0.5-2.4,0.8-3.7,1c1.3-0.8,2.4-2,2.9-3.5c-1.2,0.7-2.6,1.3-4.1,1.6c-1.2-1.2-2.9-2-4.7-2
	c-3.6,0-6.5,2.9-6.5,6.4c0,0.5,0.1,1,0.2,1.5c-5.4-0.3-10.1-2.8-13.3-6.6c-0.5,1-0.9,2-0.9,3.2c0,2.2,1.2,4.2,2.9,5.3
	c-1.1,0-2-0.3-2.9-0.8c0,0,0,0.1,0,0.1c0,0.8,0.2,1.6,0.4,2.3c0.8,2,2.6,3.5,4.7,3.9c-0.6,0.2-1.1,0.2-1.7,0.2
	c-0.4,0-0.8-0.1-1.2-0.1c0.8,2.5,3.2,4.4,6,4.4c-2.2,1.7-5,2.7-8,2.7c-0.5,0-1,0-1.6-0.1c2.9,1.8,6.3,2.9,9.9,2.9
	c10.1,0,16.3-7,17.9-14.2c0.3-1.3,0.4-2.6,0.4-3.8c0-0.3,0-0.6,0-0.8C73.2,40.1,74.3,38.9,75.2,37.7L75.2,37.7z"/>
<path class="st0" d="M141.3,16.4c8.6,0,16.5,3.5,22.1,9.2c5.7,5.7,9.2,13.5,9.2,22.1c0,8.6-3.5,16.4-9.2,22.1
	c-5.7,5.7-13.5,9.2-22.1,9.2c-8.6,0-16.4-3.5-22.1-9.2c-5.7-5.7-9.2-13.5-9.2-22.1c0-8.6,3.5-16.4,9.2-22.1
	C124.8,19.9,132.6,16.4,141.3,16.4L141.3,16.4z M161.7,27.3c-5.2-5.2-12.4-8.5-20.4-8.5c-8,0-15.2,3.2-20.4,8.5
	c-5.2,5.2-8.5,12.4-8.5,20.4c0,8,3.2,15.2,8.5,20.4c5.2,5.2,12.4,8.4,20.4,8.4c8,0,15.2-3.2,20.4-8.4c5.2-5.2,8.4-12.4,8.4-20.4
	C170.1,39.8,166.9,32.5,161.7,27.3L161.7,27.3z"/>
<path class="st1" d="M143.7,41.3v-2.6c0-1.2,0.8-1.5,1.4-1.5c0.6,0,3.6,0,3.6,0v-5.5h-4.9c-5.5,0-6.7,4.1-6.7,6.7v2.9h-3.2v3.9v2.5
	h3.2c0,7.3,0,16,0,16h6.4c0,0,0-8.8,0-16h4.7l0.2-2.5l0.4-3.9H143.7z"/>
<path class="st0" d="M223.2,16.6c8.6,0,16.4,3.5,22,9.1c5.6,5.6,9.1,13.4,9.1,22c0,8.6-3.5,16.4-9.1,22c-5.6,5.6-13.4,9.1-22,9.1
	s-16.4-3.5-22-9.1c-5.6-5.6-9.1-13.4-9.1-22c0-8.6,3.5-16.4,9.1-22C206.8,20.1,214.6,16.6,223.2,16.6L223.2,16.6z M243.5,27.4
	c-5.2-5.2-12.4-8.4-20.3-8.4s-15.1,3.2-20.3,8.4c-5.2,5.2-8.4,12.4-8.4,20.3c0,7.9,3.2,15.1,8.4,20.3c5.2,5.2,12.4,8.4,20.3,8.4
	s15.1-3.2,20.3-8.4c5.2-5.2,8.4-12.4,8.4-20.3C251.9,39.8,248.7,32.6,243.5,27.4L243.5,27.4z"/>
<path class="st1" d="M238.8,41.1c0,0-0.3-2.3-1.3-3.3c-1.2-1.3-2.6-1.3-3.2-1.4c-4.4-0.3-11.1-0.3-11.1-0.3h0c0,0-6.7,0-11.1,0.3
	c-0.6,0.1-2,0.1-3.2,1.4c-0.9,1-1.3,3.3-1.3,3.3s-0.3,2.7-0.3,5.3v0.3V49c0,2.7,0.3,5.3,0.3,5.3s0.3,2.3,1.3,3.3
	c1.2,1.3,2.8,1.3,3.5,1.4c2.5,0.3,10.8,0.3,10.8,0.3s6.7,0,11.1-0.3c0.6-0.1,2-0.1,3.2-1.4c0.9-1,1.3-3.3,1.3-3.3s0.3-2.7,0.3-5.3
	v-2.1v-0.5C239.1,43.8,238.8,41.1,238.8,41.1L238.8,41.1z M228.5,47.4l-8.6,4.6v-7.1v-2.2l3.9,2.1L228.5,47.4z"/>
<path class="st0" d="M305.3,16.4c8.7,0,16.5,3.5,22.1,9.2c5.7,5.7,9.2,13.5,9.2,22.1c0,8.7-3.5,16.5-9.2,22.1
	c-5.7,5.7-13.5,9.2-22.1,9.2c-8.6,0-16.5-3.5-22.1-9.2c-5.7-5.7-9.2-13.5-9.2-22.1c0-8.7,3.5-16.5,9.2-22.1
	C288.9,19.9,296.7,16.4,305.3,16.4L305.3,16.4z M325.8,27.3c-5.2-5.2-12.4-8.5-20.4-8.5c-8,0-15.2,3.2-20.4,8.5
	c-5.2,5.2-8.5,12.4-8.5,20.4c0,8,3.2,15.2,8.5,20.4c5.2,5.2,12.4,8.4,20.4,8.4c8,0,15.2-3.2,20.4-8.4c5.2-5.2,8.4-12.4,8.4-20.4
	C334.2,39.7,331,32.5,325.8,27.3L325.8,27.3z"/>
<path class="st1" d="M297.3,47.7c0-4.4,3.6-8,8-8c4.4,0,8,3.6,8,8c0,4.4-3.6,8-8,8C300.9,55.8,297.3,52.2,297.3,47.7L297.3,47.7z
	 M313.6,32h-16.6c-4.1,0-7.4,3.3-7.4,7.4V56c0,4.1,3.3,7.4,7.4,7.4h16.6c4.1,0,7.4-3.3,7.4-7.4V39.5C321,35.4,317.7,32,313.6,32
	L313.6,32z M297.1,33.9h16.6c3.1,0,5.6,2.5,5.6,5.6V56c0,3.1-2.5,5.6-5.6,5.6h-16.6c-3.1,0-5.6-2.5-5.6-5.6V39.5
	C291.5,36.4,294,33.9,297.1,33.9L297.1,33.9z M315.3,36.2c-0.9,0-1.6,0.7-1.6,1.6c0,0.9,0.7,1.6,1.6,1.6c0.9,0,1.6-0.7,1.6-1.6
	C316.9,37,316.2,36.2,315.3,36.2L315.3,36.2z M315.5,47.7c0-5.6-4.5-10.1-10.1-10.1c-5.6,0-10.1,4.5-10.1,10.1
	c0,5.6,4.5,10.1,10.1,10.1C310.9,57.9,315.5,53.3,315.5,47.7L315.5,47.7z"/>
</svg>
