<?xml version="1.0" encoding="utf-8"?>
<!-- Generator: Adobe Illustrator 19.0.0, SVG Export Plug-In . SVG Version: 6.00 Build 0)  -->
<svg version="1.1" id="Capa_1" xmlns="http://www.w3.org/2000/svg" xmlns:xlink="http://www.w3.org/1999/xlink" x="0px" y="0px"
	 viewBox="0 0 301 299" style="enable-background:new 0 0 301 299;" xml:space="preserve">
<style type="text/css">
	.st0{fill:#47C4D8;}
	.st1{fill:#FFFFFF;}
</style>
<path id="XMLID_1_" class="st0" d="M236.4,285.1H65.8c-26.6,0-48.2-21.6-48.2-48.2V66.3c0-26.6,21.6-48.2,48.2-48.2h170.6
	c26.6,0,48.2,21.6,48.2,48.2v170.6C284.6,263.5,263,285.1,236.4,285.1z"/>
<g id="XMLID_9_">
	<path id="XMLID_18_" class="st1" d="M116.6,171.3C116.5,171.3,116.8,171.3,116.6,171.3L116.6,171.3z M116.6,171.3"/>
	<path id="XMLID_15_" class="st1" d="M184.3,155l-8.6-45.9c-0.6-3.3-3.5-5.6-6.8-5.4h-6.9c-17,0-9.7,0-17,0c-7.3,0,0,0-17,0h-7.2
		c-3.6-0.1-6.6,2.6-6.9,6.2l-3.7,54.3c-0.3,3.7,2.8,7,6.4,7.1c3.5,0.1,6.7-2.7,6.9-6.2l2.5-36.8l0.1,94.6c0,4.3,3.3,8,7.6,8.2
		c4.6,0.2,8.4-3.5,8.4-8v-50.6c0-1.5,1.2-2.7,2.7-2.7c1.5,0,2.7,1.2,2.7,2.7v50.3c0,4.3,3.3,8,7.6,8.2c4.6,0.2,8.4-3.5,8.4-8
		l0.1-100.2l7.4,34.6c-2.4,2.2-3.8,5.4-3.8,8.9v60c0,2.2,1.7,4,3.8,4.1c2.2,0.1,4.1-1.7,4.1-3.9v-56.7c1.1,0.9,2.6,1.4,4.1,1.4
		c0.4,0,0.8,0,1.2-0.1c1.4-0.3,2.6-0.9,3.5-1.9v2.2c0,2.2,1.7,4,3.8,4.1c2.2,0.1,4.1-1.7,4.1-3.9v-5.3
		C192,161.3,188.8,156.9,184.3,155L184.3,155z M184.3,155"/>
	<path id="XMLID_12_" class="st1" d="M159.6,84.4c0,8-6.5,14.5-14.5,14.5c-8,0-14.5-6.5-14.5-14.5S137,69.9,145,69.9
		C153.1,69.9,159.6,76.4,159.6,84.4L159.6,84.4z M159.6,84.4"/>
</g>
</svg>
