<?xml version="1.0" encoding="utf-8"?>
<!-- Generator: Adobe Illustrator 19.0.0, SVG Export Plug-In . SVG Version: 6.00 Build 0)  -->
<svg version="1.1" id="Capa_1" xmlns="http://www.w3.org/2000/svg" xmlns:xlink="http://www.w3.org/1999/xlink" x="0px" y="0px"
	 viewBox="0 0 301 299" style="enable-background:new 0 0 301 299;" xml:space="preserve">
<style type="text/css">
	.st0{fill:#47C4D8;}
	.st1{fill:#FFFFFF;}
</style>
<path id="XMLID_1_" class="st0" d="M236.4,285.1H65.8c-26.6,0-48.2-21.6-48.2-48.2V66.3c0-26.6,21.6-48.2,48.2-48.2h170.6
	c26.6,0,48.2,21.6,48.2,48.2v170.6C284.6,263.5,263,285.1,236.4,285.1z"/>
<g id="XMLID_13_">
	<path id="XMLID_29_" class="st1" d="M191.8,208l0,14.8c0,4.5,3.7,8.2,8.2,8.2h0c4.5,0,8.2-3.7,8.2-8.2l0-14.8H191.8z M191.8,212.3"
		/>
	<path id="XMLID_27_" class="st1" d="M171.7,205.9l0,16.9c0,4.5,3.7,8.2,8.2,8.2c4.5,0,8.2-3.7,8.2-8.2V208h-10.4
		c-2.3,0-3.3,0.4-5-0.9L171.7,205.9z"/>
	<path id="XMLID_24_" class="st1" d="M117.7,84.4c0,7.8-6.3,14.2-14.2,14.2c-7.8,0-14.2-6.3-14.2-14.2c0-7.8,6.3-14.2,14.2-14.2
		C111.3,70.2,117.7,76.5,117.7,84.4L117.7,84.4z M117.7,84.4"/>
	<path id="XMLID_21_" class="st1" d="M138.8,127.9l-21.5-2.5l-14-14l13.3,11.5l4.9,0.6v-10.6c0-5.3-4.3-9.6-9.6-9.6H94.9
		c-5.3,0-9.6,4.3-9.6,9.6l-0.2,109.8c0,4.5,3.7,8.2,8.2,8.2h0c4.5,0,8.2-3.7,8.2-8.2l0.2-60.7c0,0,0,0,0,0h3.5l0,60.7
		c0,4.5,3.7,8.2,8.2,8.2c4.5,0,8.2-3.7,8.2-8.2c0-73,0.4-81.2,0.4-81.2l-8.5-1.6c-2.7-0.3-5.3-0.7-8.1-3.9l-11.9-15l15.7,15.6
		c1.1,1.1,2.5,1.8,4,1.9l23.8,2.8c3.8,0.4,7.2-2.2,7.6-6C145.3,131.8,142.6,128.4,138.8,127.9L138.8,127.9z M138.8,127.9"/>
	<path id="XMLID_18_" class="st1" d="M204.1,84.4c0,7.8-6.3,14.2-14.2,14.2c-7.8,0-14.2-6.3-14.2-14.2c0-7.8,6.3-14.2,14.2-14.2
		C197.7,70.2,204.1,76.5,204.1,84.4L204.1,84.4z M204.1,84.4"/>
	<path id="XMLID_14_" class="st1" d="M215.4,175.3h-7.2v-10.1c0-1.9-1.6-3.5-3.5-3.5h-1.1c0.4-2.4,3-18.7,3.4-21.3
		c0.2-1.1,0.1-2.3-0.3-3.4l-8.1-22.9l0.5,0.7l8.9,20.2v-22c0-5.3-4.3-9.6-9.6-9.6h-17.1c-5.3,0-9.6,4.3-9.6,9.6v2.4l-21.9,12.5
		c1.4,2.5,2.1,5.4,1.7,8.4c-0.5,3.9-2.5,7.2-5.4,9.3c0.3-0.1,0.7-0.3,1-0.5l24.6-14l0.2,44.1c2.9-2.3,8.3-2,9.8-2l-0.1-4
		c0-3.7,2.6-8.3,5.8-9.8l2.6-19.3l-4-17.2l-0.4-4.3l7.5,21.2c-0.4,2.3-3.1,19.2-3.5,21.7h-1.5c-1.9,0-3.5,1.6-3.5,3.5v10.1h-7.2
		c-2,0-3.6,1.6-3.6,3.6v23.8c0,2,1.6,3.6,3.6,3.6h37.8c2,0,3.6-1.6,3.6-3.6v-23.8C219,176.9,217.4,175.3,215.4,175.3L215.4,175.3z
		 M195.3,170.7c0.4,0.1,0.7,0.1,1.1,0.1c1.5,0,3-0.5,4.2-1.4h0.7v5.9h-9.5v-5.9h0.4C193.1,170,194.1,170.5,195.3,170.7L195.3,170.7z
		 M195.3,170.7"/>
</g>
</svg>
