<?xml version="1.0" encoding="utf-8"?>
<!-- Generator: Adobe Illustrator 19.0.0, SVG Export Plug-In . SVG Version: 6.00 Build 0)  -->
<svg version="1.1" id="Capa_1" xmlns="http://www.w3.org/2000/svg" xmlns:xlink="http://www.w3.org/1999/xlink" x="0px" y="0px"
	 viewBox="0 0 301 299" style="enable-background:new 0 0 301 299;" xml:space="preserve">
<style type="text/css">
	.st0{fill:#BFDA74;}
	.st1{clip-path:url(#XMLID_15_);fill:#FFFFFF;}
	.st2{fill:#FFFFFF;}
</style>
<path id="XMLID_1_" class="st0" d="M236.4,285.1H65.8c-26.6,0-48.2-21.6-48.2-48.2V66.3c0-26.6,21.6-48.2,48.2-48.2h170.6
	c26.6,0,48.2,21.6,48.2,48.2v170.6C284.6,263.5,263,285.1,236.4,285.1z"/>
<g id="XMLID_17_">
	<defs>
		<rect id="XMLID_4_" x="76.2" y="70" width="160.4" height="161.1"/>
	</defs>
	<clipPath id="XMLID_15_">
		<use xlink:href="#XMLID_4_"  style="overflow:visible;"/>
	</clipPath>
	<path id="XMLID_25_" class="st1" d="M203.4,85.7c0,7.9-6.4,14.3-14.3,14.3c-7.9,0-14.3-6.4-14.3-14.3c0-7.9,6.4-14.3,14.3-14.3
		C197,71.4,203.4,77.8,203.4,85.7L203.4,85.7z M203.4,85.7"/>
	<path id="XMLID_22_" class="st1" d="M236.3,226c-1.5-4.3-23.3-67.7-24.1-69.8c0.6-0.5,1.1-1.2,1.5-1.9c1.6-3.1,0.3-6.9-2.8-8.5
		L189,134.8l-5.7-20l7.8,19.8l3.4,1.7l3.2-19.6c0.9-5.2-2.6-10.2-7.9-11.1l-16.9-2.9c-5.2-0.9-10.2,2.6-11.1,7.9l-0.3,1.5
		c3.9,1.3,7,4.7,7.8,9.1c1.2,6.4-3.1,12.6-9.5,13.7l-2.3,0.4l-4.1,23.9c0,0,0.1,0.2-1.1,27.2l-7.3,17.8l2.3,16.6
		c0.5,3.6-0.4,7.2-2.4,10c3.5,0.4,6.9-1.5,8.3-4.8l14.3-34.7c0.4-0.9,0.6-1.8,0.6-2.7c1.2-28.5,1.1-26.2,1.1-26.5l1.8,0.3l8.8,23.9
		l1.6,37c0.2,4.4,3.9,7.8,8.3,7.6c4.4-0.2,7.8-3.9,7.6-8.3l-1.7-38.3c0-0.8-0.2-1.6-0.5-2.4l-6.1-16.5l0.3,0l2.7-13.3
		c-4.2-2.1-9.3-5.3-13.5-7.4c-2.5-1.3-3.4-3.4-3.5-6l-3.9-20.4l6.4,22.7c0.5,1.7,1.7,3.1,3.3,3.9L205,157
		c1.6,4.6,23.6,68.4,24.6,71.3c0.6,1.9,2.7,2.8,4.5,2.2C235.9,229.9,236.9,227.8,236.3,226L236.3,226z M236.3,226"/>
	<path id="XMLID_19_" class="st1" d="M163.9,122.1c-0.6-3.4-3.9-5.7-7.3-5.1l-23.9,4.3l-16.4-12.5l11.8,7.5v-1.2
		c0-5.3-0.9-11.8-9.6-11.8h-17.1c-5.3,0-9.6,4.3-9.6,9.6V162h0l-1,24.6l-13.7,33.2c-1.7,4,0.3,8.6,4.3,10.3c4,1.7,8.6-0.3,10.3-4.3
		l14.2-34.5c0.3-0.9,0.5-1.8,0.6-2.7c1.2-28.1,1.1-26.2,1.1-26.7h3.7l9.1,24.7l5.1,37.2c0.6,4.3,4.6,7.3,8.9,6.7
		c4.3-0.6,7.3-4.6,6.7-8.9l-5.2-38.1c-0.1-0.6-0.2-1.1-0.4-1.6l-7.4-20.2l0.4-26.4c-1.6-0.4-3.1-1.3-4.1-2.6l-15.7-14.1l18.6,14.2
		c1.4,1.1,3.2,1.5,4.9,1.2l26.6-4.8C162.3,128.8,164.5,125.5,163.9,122.1L163.9,122.1z M163.9,122.1"/>
</g>
<path id="XMLID_14_" class="st2" d="M126.4,84.3c0,7.8-6.3,14.2-14.2,14.2c-7.8,0-14.2-6.3-14.2-14.2c0-7.8,6.3-14.2,14.2-14.2
	C120,70.1,126.4,76.5,126.4,84.3L126.4,84.3z M126.4,84.3"/>
</svg>
